HIERARCHY
ROOT hip
{
	OFFSET 0.000000 0.000000 0.000000 
	CHANNELS 6 Xposition Yposition Zposition Xrotation Zrotation Yrotation
	JOINT abdomen
	{
		OFFSET 0.000000 3.402643 0.000000 
		CHANNELS 3 Xrotation Zrotation Yrotation
		JOINT chest
		{
			OFFSET 0.000000 8.438565 -0.680529 
			CHANNELS 3 Xrotation Zrotation Yrotation
			JOINT neck
			{
				OFFSET 0.000000 10.207942 -0.272212 
				CHANNELS 3 Xrotation Zrotation Yrotation
				JOINT head
				{
					OFFSET 0.000000 3.130431 0.000000 
					CHANNELS 3 Xrotation Zrotation Yrotation
					End Site
					{
						OFFSET 0.000000 3.130435 0.000000 
					}
				}
			}
			JOINT lCollar
			{
				OFFSET 3.470700 6.669187 -0.816635 
				CHANNELS 3 Yrotation Zrotation Xrotation
				JOINT lShldr
				{
					OFFSET 3.198488 0.000000 0.000000 
					CHANNELS 3 Zrotation Yrotation Xrotation
					JOINT lForeArm
					{
						OFFSET 10.139888 0.000000 0.000000 
						CHANNELS 3 Yrotation Zrotation Xrotation
						JOINT lHand
						{
							OFFSET 8.370511 0.000000 0.000000 
							CHANNELS 3 Zrotation Yrotation Xrotation
							End Site
							{
								OFFSET 4.083176 0.000000 0.000000 
							}
						}
					}
				}
			}
			JOINT rCollar
			{
				OFFSET -3.470700 6.669187 -0.816635 
				CHANNELS 3 Yrotation Zrotation Xrotation
				JOINT rShldr
				{
					OFFSET -3.198488 0.000000 0.000000 
					CHANNELS 3 Zrotation Yrotation Xrotation
					JOINT rForeArm
					{
						OFFSET -10.139888 0.000000 0.000000 
						CHANNELS 3 Yrotation Zrotation Xrotation
						JOINT rHand
						{
							OFFSET -8.370511 0.000000 0.000000 
							CHANNELS 3 Zrotation Yrotation Xrotation
							End Site
							{
								OFFSET -4.083176 0.000000 0.000000 
							}
						}
					}
				}
			}
		}
	}
	JOINT lThigh
	{
		OFFSET 5.308129 -1.633274 1.361059 
		CHANNELS 3 Xrotation Zrotation Yrotation
		JOINT lShin
		{
			OFFSET -2.041588 -20.007561 0.000000 
			CHANNELS 3 Xrotation Zrotation Yrotation
			JOINT lFoot
			{
				OFFSET 0.000000 -19.190928 -1.224953 
				CHANNELS 3 Xrotation Yrotation Zrotation
				End Site
				{
					OFFSET 0.000000 -2.449906 4.627600 
				}
			}
		}
	}
	JOINT rThigh
	{
		OFFSET -5.308129 -1.633274 1.361059 
		CHANNELS 3 Xrotation Zrotation Yrotation
		JOINT rShin
		{
			OFFSET 2.041588 -20.007561 0.000000 
			CHANNELS 3 Xrotation Zrotation Yrotation
			JOINT rFoot
			{
				OFFSET 0.000000 -19.190928 -1.224953 
				CHANNELS 3 Xrotation Yrotation Zrotation
				End Site
				{
					OFFSET 0.000000 -2.449906 4.627600 
				}
			}
		}
	}
}
MOTION
Frames: 16
Frame Time: 0.016667
-0.188888 43.794540 -0.427175 8.857010 -7.073720 -11.626700 -21.962999 3.503620 -0.222570 20.185400 1.611290 0.526675 21.688480 0.471629 -10.664062 14.489200 10.565600 -4.600020 2.000000 -2.000000 0.000000 -83.865898 5.346670 -147.617004 88.857903 -0.217574 0.136735 -179.904007 -179.882996 -3.982220 -2.000000 2.000000 0.000000 83.742401 -9.356170 -158.772003 -76.641197 0.246438 0.133024 -0.199615 0.169479 138.526993 -21.023445 3.850601 0.645423 35.457748 2.346828 2.691959 -17.314651 7.914623 2.974559 -21.678373 9.074506 5.071874 30.862728 -2.057053 -2.580456 -15.167617 -8.054016 -2.845763 
-0.124178 43.823582 -0.344078 8.647690 -6.932790 -11.833500 -21.658199 3.439820 -0.198615 20.605499 1.513670 0.538657 21.843813 0.875241 -11.040647 14.532100 10.650600 -4.790160 2.000000 -2.000000 0.000000 -84.051498 5.209880 -147.656006 88.809097 -0.217691 0.136732 -179.904007 -179.882004 -4.050580 -2.000000 2.000000 0.000000 83.781601 -9.091940 -159.024994 -76.592300 0.246551 0.132997 -0.199070 0.169427 138.723007 -20.563549 3.612478 0.976301 35.251209 2.353184 2.678511 -17.359379 7.981463 3.004408 -21.327002 8.718493 4.786286 30.832563 -2.070860 -2.584698 -15.317384 -7.450920 -2.662420 
-0.067779 43.833870 -0.298953 8.538440 -6.876800 -12.095100 -21.491199 3.398920 -0.224762 20.849701 1.435530 0.515397 21.848433 1.348286 -11.312016 14.416800 10.760500 -4.949050 2.000000 -2.000000 0.000000 -84.247002 5.277960 -147.792999 88.779800 -0.217761 0.136731 -179.904007 -179.882004 -4.021280 -2.000000 2.000000 0.000000 83.781601 -9.013680 -159.084000 -76.592300 0.246551 0.132997 -0.198526 0.169372 138.917999 -20.262896 3.519114 1.217928 35.066658 2.337357 2.687086 -17.335318 8.052197 3.043059 -21.105639 8.529754 4.620790 30.791124 -2.089954 -2.561442 -15.369853 -7.012384 -2.526736 
-0.023060 43.832195 -0.298103 8.499100 -6.877500 -12.383400 -21.423300 3.413900 -0.268397 20.927900 1.425750 0.507523 21.816431 1.715415 -11.540931 14.309600 10.822000 -5.095550 2.000000 -2.000000 0.000000 -84.452301 5.394850 -147.940002 88.760300 -0.217807 0.136730 -179.904007 -179.882996 -3.894330 -2.000000 2.000000 0.000000 83.781601 -8.935540 -159.093002 -76.563004 0.246619 0.132981 -0.198118 0.169330 139.065002 -20.175625 3.527022 1.417605 35.085598 2.341540 2.678193 -17.378775 8.168176 3.089820 -21.053583 8.507300 4.680854 30.760815 -2.099523 -2.554514 -15.330564 -6.830029 -2.479844 
0.015235 43.824993 -0.322945 8.469770 -6.887680 -12.654800 -21.365200 3.432130 -0.303348 20.908300 1.445290 0.487629 21.726898 1.973112 -11.739360 14.211000 10.844800 -5.217920 2.000000 -2.000000 0.000000 -84.638100 5.453090 -148.115997 88.740700 -0.217854 0.136729 -179.904999 -179.882996 -3.796670 -2.000000 2.000000 0.000000 83.791298 -8.818390 -159.074005 -76.553299 0.246642 0.132976 -0.197846 0.169301 139.162003 -20.139809 3.546285 1.569079 35.134510 2.341433 2.677148 -17.380230 8.262875 3.110218 -21.046715 8.551622 4.887607 30.761755 -2.090520 -2.562226 -15.268792 -6.787127 -2.430434 
0.054015 43.819088 -0.346358 8.400580 -6.869580 -12.917200 -21.287201 3.432580 -0.330103 20.898500 1.455050 0.467912 21.679554 2.298486 -11.890956 14.104100 10.915900 -5.324050 2.000000 -2.000000 0.000000 -84.784798 5.501500 -148.320999 88.789597 -0.217737 0.136731 -179.904999 -179.882996 -3.825970 -2.000000 2.000000 0.000000 83.840103 -8.671970 -159.044006 -76.533699 0.246687 0.132965 -0.197738 0.169289 139.201004 -20.082872 3.520891 1.715532 35.184219 2.340796 2.695566 -17.394526 8.370448 3.151117 -21.041700 8.560803 5.061719 30.800602 -2.095108 -2.562143 -15.213947 -6.721972 -2.390758 
0.090168 43.813694 -0.367781 8.321230 -6.832300 -13.175600 -21.209101 3.433050 -0.356831 20.908300 1.464820 0.458455 21.709084 2.599350 -12.020781 14.027800 11.005300 -5.411760 2.000000 -2.000000 0.000000 -84.902298 5.569460 -148.516006 88.897003 -0.217481 0.136736 -179.904007 -179.882996 -3.904090 -2.000000 2.000000 0.000000 83.888802 -8.535360 -158.994995 -76.514198 0.246732 0.132954 -0.197683 0.169284 139.220993 -19.985401 3.491980 1.880037 35.184738 2.331765 2.692810 -17.404432 8.481737 3.204121 -21.081827 8.559148 5.191296 30.955284 -2.118727 -2.555326 -15.239700 -6.648086 -2.341954 
0.120297 43.807392 -0.387485 8.252220 -6.823820 -13.498100 -21.141001 3.456130 -0.351002 20.888800 1.494120 0.458131 21.754131 2.877115 -12.137600 13.981200 11.093600 -5.484310 2.000000 -2.000000 0.000000 -85.000198 5.647230 -148.692993 89.014198 -0.217202 0.136742 -179.904007 -179.873001 -3.913840 -2.000000 2.000000 0.000000 83.947304 -8.447600 -158.936005 -76.494698 0.246778 0.132943 -0.197602 0.169275 139.250000 -19.890511 3.496054 2.060532 35.203995 2.337205 2.694014 -17.405451 8.633371 3.267941 -21.057449 8.592909 5.392691 30.975264 -2.111839 -2.553102 -15.154533 -6.582246 -2.289042 
0.147940 43.801605 -0.403474 8.162890 -6.776990 -13.831200 -21.083000 3.484700 -0.358313 20.859501 1.552710 0.467452 21.739908 3.113813 -12.224909 13.914000 11.163300 -5.554310 2.000000 -2.000000 0.000000 -85.078499 5.725060 -148.839996 89.111801 -0.216969 0.136745 -179.904999 -179.882996 -3.835730 -2.000000 2.000000 0.000000 83.996101 -8.389180 -158.858002 -76.455597 0.246868 0.132921 -0.197574 0.169272 139.259995 -19.813189 3.460984 2.236251 35.232361 2.347543 2.686788 -17.378422 8.801839 3.316374 -21.018768 8.588302 5.630958 31.033899 -2.119208 -2.563486 -15.133185 -6.458724 -2.242966 
0.183520 43.799942 -0.418044 8.052310 -6.633760 -14.071600 -21.043600 3.469560 -0.370948 20.810600 1.601550 0.446822 21.672968 3.315067 -12.273140 13.836200 11.214200 -5.600350 2.000000 -2.000000 0.000000 -85.127502 5.773620 -148.966995 89.199699 -0.216759 0.136748 -179.904999 -179.873001 -3.747830 -2.000000 2.000000 0.000000 84.064301 -8.340510 -158.789001 -76.377502 0.247049 0.132877 -0.197629 0.169278 139.240005 -19.614248 3.288493 2.382551 35.115360 2.341012 2.687138 -17.361534 8.965486 3.373928 -21.021484 8.439965 5.726795 31.130415 -2.134437 -2.555594 -15.136248 -6.274903 -2.176455 
0.223500 43.796730 -0.443744 8.010640 -6.489340 -14.290900 -21.023600 3.444880 -0.381170 20.742300 1.630850 0.445012 21.600643 3.511159 -12.342428 13.738400 11.265800 -5.660100 2.000000 -2.000000 0.000000 -85.147102 5.763700 -149.044998 89.307198 -0.216503 0.136752 -179.904999 -179.873001 -3.747830 -2.000000 2.000000 0.000000 84.142403 -8.291750 -158.759995 -76.299400 0.247231 0.132833 -0.197683 0.169284 139.220993 -19.554325 3.116321 2.515056 35.056545 2.336399 2.677209 -17.307627 9.117417 3.411321 -21.106874 8.294125 5.799684 31.247795 -2.140870 -2.564560 -15.151123 -6.083613 -2.107481 
0.259767 43.791328 -0.476009 7.999430 -6.402460 -14.551100 -21.004299 3.461270 -0.365306 20.673901 1.660150 0.452897 21.525368 3.681242 -12.428117 13.659900 11.297500 -5.719390 2.000000 -2.000000 0.000000 -85.127602 5.724620 -149.054993 89.434097 -0.216200 0.136755 -179.904999 -179.882996 -3.816200 -2.000000 2.000000 0.000000 84.240097 -8.252620 -158.789001 -76.250504 0.247344 0.132806 -0.197683 0.169284 139.220993 -19.555189 3.043221 2.659067 35.026970 2.340530 2.679006 -17.254005 9.262577 3.454189 -21.185999 8.223070 5.932138 31.317329 -2.136241 -2.581218 -15.141858 -5.923537 -2.042295 
0.289809 43.786194 -0.503993 7.968750 -6.325550 -14.858200 -20.975500 3.497270 -0.324953 20.595699 1.728520 0.470223 21.473639 3.766043 -12.500719 13.630400 11.308100 -5.762600 2.000000 -2.000000 0.000000 -85.088402 5.675930 -148.985992 89.570801 -0.215873 0.136758 -179.904999 -179.882996 -3.806440 -2.000000 2.000000 0.000000 84.328003 -8.213510 -158.809006 -76.172401 0.247525 0.132761 -0.197792 0.169295 139.182007 -19.520939 2.979720 2.849205 35.007923 2.331351 2.676800 -17.227360 9.386046 3.522606 -21.243799 8.181942 6.092893 31.356651 -2.133020 -2.579507 -15.075601 -5.771245 -1.977731 
0.319279 43.782845 -0.530838 7.918290 -6.239250 -15.153300 -20.956600 3.538760 -0.297751 20.507799 1.787110 0.486758 21.451519 3.839002 -12.547221 13.601200 11.328400 -5.794460 2.000000 -2.000000 0.000000 -85.049202 5.637190 -148.830002 89.688004 -0.215594 0.136760 -179.904999 -179.873993 -3.562280 -2.000000 2.000000 0.000000 84.415901 -8.203750 -158.809006 -76.055199 0.247796 0.132694 -0.198064 0.169324 139.084000 -19.525753 2.918217 3.040420 35.065903 2.343850 2.679340 -17.237602 9.517743 3.553850 -21.292822 8.130457 6.217877 31.423681 -2.143917 -2.561623 -15.046799 -5.653634 -1.934476 
0.349723 43.779892 -0.558822 7.877980 -6.172120 -15.403400 -20.947100 3.554940 -0.282402 20.410101 1.826170 0.493379 21.429697 3.869181 -12.547971 13.562400 11.358700 -5.816910 2.000000 -2.000000 0.000000 -84.970703 5.549830 -148.565002 89.766098 -0.215407 0.136760 -179.906006 -179.884003 -3.132610 -2.000000 2.000000 0.000000 84.494003 -8.194020 -158.789001 -75.879402 0.248203 0.132592 -0.198472 0.169366 138.938004 -19.445793 2.879925 3.254520 35.007793 2.333715 2.677427 -17.220078 9.585286 3.589918 -21.326380 8.092485 6.353547 31.463205 -2.143932 -2.570458 -15.007996 -5.537017 -1.880276 
0.380076 43.775658 -0.588810 7.847800 -6.124190 -15.628000 -20.918400 3.586360 -0.282667 20.351500 1.845690 0.491442 21.405857 3.864823 -12.530158 13.532900 11.369400 -5.821100 2.000000 -2.000000 0.000000 -84.882401 5.374650 -148.272003 89.853996 -0.215198 0.136761 -179.906998 -179.884995 -2.722460 -2.000000 2.000000 0.000000 84.572098 -8.155030 -158.759995 -75.654800 0.248723 0.132461 -0.198907 0.169410 138.781006 -19.434052 2.862091 3.440397 35.017979 2.326609 2.675058 -17.232725 9.647206 3.603691 -21.380177 8.084793 6.490804 31.521784 -2.145686 -2.569755 -14.975776 -5.463058 -1.827856 
